<svg width="500" height="500" viewBox="0 0 500 500" fill="none" xmlns="http://www.w3.org/2000/svg">
<circle cx="250" cy="250" r="250" fill="#8CBECF"/>
<path d="M150 127H311.5L331.5 147L349 165V250V373H150V127Z" fill="#F1BDD2"/>
<path d="M173.284 212.26C174.361 213.11 176.203 214.272 178.809 215.745C181.473 217.218 183.994 217.955 186.374 217.955C188.811 217.955 190.029 217.02 190.029 215.15C190.029 214.3 189.689 213.563 189.009 212.94C188.329 212.26 187.083 211.495 185.269 210.645C183.456 209.795 182.096 209.143 181.189 208.69C180.283 208.18 179.064 207.387 177.534 206.31C176.061 205.177 174.928 204.015 174.134 202.825C171.868 199.595 170.734 195.487 170.734 190.5C170.734 185.513 172.576 181.32 176.259 177.92C179.999 174.463 184.873 172.735 190.879 172.735C194.959 172.735 198.728 173.188 202.184 174.095C205.641 174.945 207.426 176.078 207.539 177.495C207.539 177.665 207.539 177.835 207.539 178.005C207.539 179.988 206.916 182.51 205.669 185.57C204.423 188.573 203.544 190.245 203.034 190.585C199.408 188.715 196.149 187.78 193.259 187.78C190.426 187.78 189.009 188.8 189.009 190.84C189.009 192.087 190.058 193.192 192.154 194.155C192.608 194.382 193.259 194.693 194.109 195.09C194.959 195.487 195.923 195.968 196.999 196.535C198.133 197.045 199.323 197.725 200.569 198.575C201.873 199.368 203.261 200.445 204.734 201.805C207.738 204.638 209.239 208.378 209.239 213.025C209.239 219.088 207.568 224.047 204.224 227.9C200.881 231.753 195.724 233.737 188.754 233.85C185.354 233.85 182.266 233.567 179.489 233C176.769 232.433 174.389 231.328 172.349 229.685C170.309 228.042 169.289 226.058 169.289 223.735C169.289 221.412 169.714 219.117 170.564 216.85C171.414 214.527 172.321 212.997 173.284 212.26ZM219.46 227.985C215.947 224.075 214.19 218.663 214.19 211.75C214.19 204.837 215.947 199.425 219.46 195.515C223.03 191.605 227.819 189.65 233.825 189.65C239.832 189.65 244.592 191.605 248.105 195.515C251.619 199.425 253.375 204.837 253.375 211.75C253.375 218.663 251.619 224.075 248.105 227.985C244.592 231.895 239.832 233.85 233.825 233.85C227.819 233.85 223.03 231.895 219.46 227.985ZM233.825 203.845C230.652 203.845 229.065 206.452 229.065 211.665C229.065 216.878 230.652 219.485 233.825 219.485C237.055 219.485 238.67 216.878 238.67 211.665C238.67 206.452 237.055 203.845 233.825 203.845ZM262.7 201.805H258.535C257.685 201.805 257.26 199.935 257.26 196.195C257.26 192.398 257.685 190.5 258.535 190.5H262.7V188.63C262.7 182.623 263.946 178.487 266.44 176.22C268.99 173.897 272.531 172.735 277.065 172.735C281.598 172.735 285.593 173.557 289.05 175.2C289.503 175.37 289.73 175.993 289.73 177.07C289.73 178.09 289.248 179.762 288.285 182.085C287.321 184.408 286.5 185.74 285.82 186.08C283.893 184.89 281.91 184.295 279.87 184.295C277.66 184.295 276.555 185.768 276.555 188.715V190.5H283.61C284.63 190.5 285.14 192.313 285.14 195.94C285.14 199.907 284.488 201.89 283.185 201.89H277.745V231.98C277.745 232.66 275.223 233 270.18 233C265.193 233 262.7 232.66 262.7 231.98V201.805ZM308.236 232.49C308.236 233.17 305.856 233.51 301.096 233.51C295.43 233.283 292.596 232.915 292.596 232.405V202.315H288.261C287.128 202.315 286.561 200.36 286.561 196.45C286.561 195.43 286.646 194.183 286.816 192.71C287.043 191.237 287.468 190.5 288.091 190.5H292.596V183.02C292.596 181.887 294.976 181.32 299.736 181.32C304.553 181.32 306.961 181.773 306.961 182.68V188.12L307.046 190.5H314.271C315.235 190.5 315.716 192.483 315.716 196.45C315.716 200.417 315.235 202.4 314.271 202.4H308.236V232.49ZM196.938 330.17C191.782 330.17 189.203 329.603 189.203 328.47V273.39C189.203 271.463 190.082 270.5 191.838 270.5H206.798C215.185 270.5 221.22 272.228 224.903 275.685C228.643 279.142 230.513 284.157 230.513 290.73C230.513 296.17 228.757 301.157 225.243 305.69C223.487 307.957 220.908 309.77 217.508 311.13C214.108 312.49 210.142 313.17 205.608 313.17V328.385C205.608 329.065 204.532 329.547 202.378 329.83C200.282 330.057 198.468 330.17 196.938 330.17ZM205.608 285.29V298.72H206.713C208.697 298.72 210.368 298.097 211.728 296.85C213.088 295.603 213.768 293.847 213.768 291.58C213.768 289.313 213.287 287.698 212.323 286.735C211.417 285.772 209.773 285.29 207.393 285.29H205.608ZM259.1 271.01C259.1 270.16 261.338 269.735 265.815 269.735C267.345 269.735 269.102 269.848 271.085 270.075C273.125 270.245 274.145 270.5 274.145 270.84V315.635H277.12C278.537 315.635 279.472 316.91 279.925 319.46C280.038 320.197 280.095 321.217 280.095 322.52C280.095 323.767 279.698 325.297 278.905 327.11C277.772 329.603 275.958 330.85 273.465 330.85C271.595 330.85 269.923 330.482 268.45 329.745C267.033 329.008 266.07 328.243 265.56 327.45L264.795 326.345C261.678 329.348 257.768 330.85 253.065 330.85C248.362 330.85 244.338 328.895 240.995 324.985C237.652 321.075 235.98 315.635 235.98 308.665C235.98 301.638 237.737 296.227 241.25 292.43C244.763 288.577 249.155 286.65 254.425 286.65C255.955 286.65 257.513 286.82 259.1 287.16V271.01ZM256.295 300.25C253.122 300.25 251.535 303.112 251.535 308.835C251.535 311.725 251.988 313.822 252.895 315.125C253.802 316.372 254.793 316.995 255.87 316.995C257.003 316.995 258.08 316.513 259.1 315.55V301.1C258.137 300.533 257.202 300.25 256.295 300.25ZM288.972 298.805H284.807C283.957 298.805 283.532 296.935 283.532 293.195C283.532 289.398 283.957 287.5 284.807 287.5H288.972V285.63C288.972 279.623 290.218 275.487 292.712 273.22C295.262 270.897 298.803 269.735 303.337 269.735C307.87 269.735 311.865 270.557 315.322 272.2C315.775 272.37 316.002 272.993 316.002 274.07C316.002 275.09 315.52 276.762 314.557 279.085C313.593 281.408 312.772 282.74 312.092 283.08C310.165 281.89 308.182 281.295 306.142 281.295C303.932 281.295 302.827 282.768 302.827 285.715V287.5H309.882C310.902 287.5 311.412 289.313 311.412 292.94C311.412 296.907 310.76 298.89 309.457 298.89H304.017V328.98C304.017 329.66 301.495 330 296.452 330C291.465 330 288.972 329.66 288.972 328.98V298.805Z" fill="white"/>
</svg>
